<svg class="h-14 w-36 " alt="mockwave" id="Layer_1" xmlns="http://www.w3.org/2000/svg" viewBox="0 0 700 200"><defs><style>.cls-1<!-- -->{<!-- -->fill:#f63758<!-- -->}<!-- -->.cls-2<!-- -->{<!-- -->fill:#fff<!-- -->}<!-- -->.cls-3<!-- -->{<!-- -->fill:#d8d8d8<!-- -->}<!-- -->.cls-4,.cls-5<!-- -->{<!-- -->fill:#141414<!-- -->}<!-- -->.cls-5<!-- -->{<!-- -->fill-rule:evenodd<!-- -->}</style></defs><rect class="cls-1" x="30" y="32.65" width="134.71" height="134.71" rx="31.24" ry="31.24"></rect><path class="cls-2" d="M68.67 134.24c-9.45.75-14.18-3.48-14.18-12.68v-12.01c0-2.69-.56-4.44-1.68-5.26-1.12-.82-2.95-1.21-5.48-1.16v-6.27c2.54.05 4.36-.35 5.48-1.19 1.12-.85 1.68-2.59 1.68-5.22V78.44c0-9.2 4.72-13.43 14.18-12.68v6.27c-2.74-.3-4.7.01-5.89.93-1.19.92-1.79 2.75-1.79 5.48v12.01c0 4.97-1.79 8.16-5.37 9.55 3.58 1.34 5.37 4.53 5.37 9.55v12.01c0 2.74.61 4.56 1.83 5.48 1.22.92 3.17 1.23 5.86.93v6.27zM126.04 134.24v-6.27c2.69.3 4.64-.01 5.86-.93 1.22-.92 1.83-2.75 1.83-5.48v-12.01c0-5.02 1.79-8.21 5.37-9.55-3.58-1.39-5.37-4.58-5.37-9.55V78.44c0-2.73-.6-4.56-1.79-5.48-1.19-.92-3.16-1.23-5.89-.93v-6.27c9.45-.75 14.17 3.48 14.17 12.68v12.01c0 2.64.56 4.38 1.68 5.22 1.12.85 2.95 1.24 5.48 1.19v6.27c-2.54-.05-4.36.34-5.48 1.16-1.12.82-1.68 2.57-1.68 5.26v12.01c0 9.2-4.73 13.43-14.17 12.68z"></path><g><path class="cls-2" d="M76.97 105.45c-1.51 0-2.8-.53-3.86-1.59s-1.59-2.35-1.59-3.86.53-2.8 1.59-3.86 2.35-1.59 3.86-1.59 2.86.53 3.9 1.59c1.03 1.06 1.55 2.35 1.55 3.86s-.52 2.8-1.55 3.86c-1.04 1.06-2.34 1.59-3.9 1.59zM97.35 105.45c-1.51 0-2.8-.53-3.86-1.59s-1.59-2.35-1.59-3.86.53-2.8 1.59-3.86 2.35-1.59 3.86-1.59 2.86.53 3.9 1.59c1.03 1.06 1.55 2.35 1.55 3.86s-.52 2.8-1.55 3.86c-1.04 1.06-2.34 1.59-3.9 1.59zM117.74 105.45c-1.51 0-2.8-.53-3.86-1.59s-1.59-2.35-1.59-3.86.53-2.8 1.59-3.86 2.35-1.59 3.86-1.59 2.86.53 3.9 1.59c1.03 1.06 1.55 2.35 1.55 3.86s-.52 2.8-1.55 3.86c-1.04 1.06-2.34 1.59-3.9 1.59z"></path></g><g><circle class="cls-4" cx="298.04" cy="94.06" r="11.98"></circle><circle class="cls-4" cx="360.04" cy="94.06" r="11.98"></circle><path class="cls-5" d="M282.06 144.17v-13.72s20.92 9.62 47.21 9.62 46.76-9.62 46.76-9.62v13.72s-21.05 14.74-46.76 14.74-47.21-14.74-47.21-14.74z"></path><path class="cls-4" d="M200.29 66.5h15.85l15.45 38.13 15.3-38.13h15.77v55.07h-13.42V88.54l-12.32 33.03h-10.83l-12.4-33.11v33.11h-13.42V66.5zM407.16 97.25v24.32h-13.42V66.5h13.42v24.16l18.36-24.16h15.77l-21.34 26.99 22.12 28.09h-16.4l-18.51-24.32z"></path><path class="cls-1" d="M448.3 66.81h11.77l9.65 42.52 11.14-42.52h12.24l10.51 42.29 9.73-42.29h11.85l-15.3 54.76h-12.94l-10.28-38.99-10.75 38.99-12.87.08-14.75-54.84zM562.12 111.14h-21.81l-3.61 10.43h-11.53l19.69-54.84h12.79l19.69 54.84h-11.61l-3.61-10.43zm-10.9-31.69l-7.92 22.91h15.85l-7.92-22.91zM618.06 66.81h11.69l-20.08 54.76h-13.34l-20.08-54.76h11.77l15.06 43.54 14.98-43.54zM670 75.68h-20.79v13.73h18.44v8.71h-18.44v14.51H670v8.94h-31.77V66.73H670v8.94z"></path><path class="cls-3" d="M298.04 77.37c9.2 0 16.69 7.49 16.69 16.69s-7.49 16.69-16.69 16.69-16.69-7.49-16.69-16.69 7.49-16.69 16.69-16.69m0-11.73c-15.69 0-28.42 12.72-28.42 28.42s12.72 28.42 28.42 28.42 28.42-12.72 28.42-28.42-12.72-28.42-28.42-28.42zM373.73 103.57c-3.02 4.33-8.03 7.17-13.7 7.17-9.2 0-16.69-7.49-16.69-16.69s7.49-16.69 16.69-16.69c5.67 0 10.68 2.84 13.7 7.17h13.08c-3.91-11.01-14.42-18.9-26.78-18.9-15.69 0-28.42 12.72-28.42 28.42s12.72 28.42 28.42 28.42c12.36 0 22.87-7.89 26.78-18.9h-13.08z"></path></g></svg>
